<svg width="180" height="99" viewBox="0 0 180 99" fill="none" xmlns="http://www.w3.org/2000/svg">
<path d="M61.4224 3.8851H68.4922V26.1141L118.783 58.1626H124.848L84.4434 32.4053L82.6944 31.2906L71.622 24.2304L71.4232 24.109V0.0625305H58.4214V20.2423L61.4224 22.1554V3.8851Z" fill="black"/>
<path d="M71.4232 58.1626V42.1034H68.4922V54.9986H61.4224V32.6224L66.8794 36.0992H71.4232L58.4214 27.4938V58.1626V58.8212H71.4232V58.1626Z" fill="black"/>
<path d="M124.995 0H119.884L87.1646 25.6579L90.0035 27.468L124.995 0Z" fill="black"/>
<path d="M120.548 92.4516H124.576V93.0845C124.119 94.2286 122.812 95.623 120.323 95.623C117.624 95.623 115.632 93.7393 115.632 90.7997C115.632 87.8602 117.436 85.9985 120.157 85.9985C121.59 85.9985 123.022 86.6976 123.81 87.7976L126.756 87.014C125.449 84.6446 123.04 83.1215 120.157 83.0994C115.985 83.0994 112.624 86.337 112.624 90.7997C112.624 95.2625 115.985 98.5001 120.157 98.5001C122.046 98.5001 123.77 97.5693 124.558 96.6605H124.58C124.58 96.6826 124.558 96.9769 124.558 98.2057H127.047V90.0602H120.551V92.4516H120.548Z" fill="black"/>
<path d="M138.955 83.3974L132.979 98.2057H136.09L137.169 95.3692H143.458L144.537 98.2057H147.648L141.672 83.3974H138.955V83.3974ZM138.167 92.7681L139.599 89.0227C139.912 88.1986 140.284 86.9698 140.306 86.9698H140.328C140.35 86.9698 140.722 88.1949 141.035 89.0227L142.468 92.7681H138.17H138.167Z" fill="black"/>
<path d="M151.883 86.1494H156.405V98.2057H159.291V86.1494H163.857V83.3974H151.883V86.1494Z" fill="black"/>
<path d="M172.488 95.4575V91.8814H178.321V89.3024H172.488V86.1494H179.875V83.3974H169.602V98.2057H180V95.4575H172.488Z" fill="black"/>
<path d="M12.6152 83.3974H9.0324L5.00777 87.4591C3.64536 88.8351 2.9347 89.6372 2.91261 89.6372H2.89052C2.86842 89.6372 2.91261 88.7468 2.91261 86.3149V83.3974H0V98.2057H2.91261V93.2132L4.5475 91.5613L9.34539 98.2021H12.803L6.47697 89.6151L12.6152 83.3974V83.3974Z" fill="black"/>
<path d="M29.3838 91.7343C29.3838 94.4825 28.2092 95.7555 25.9889 95.7555C23.7685 95.7555 22.5718 94.4862 22.5718 91.7343V83.4011H19.6592V91.7784C19.6592 96.1344 22.1115 98.5074 25.9889 98.5074C29.8662 98.5074 32.3149 96.1381 32.3149 91.7784V83.4011H29.3802V91.7343H29.3838Z" fill="black"/>
<path d="M51.4366 88.3495C51.4366 85.3694 49.2788 83.4011 45.674 83.4011H40.541V98.2094H43.4536V93.1544H45.8434L48.756 98.2094H52.0258L48.675 92.6025C50.4571 91.863 51.4403 90.3803 51.4403 88.3495M46.0569 90.5275H43.4573V86.1494H46.0569C47.6476 86.1494 48.4246 87.1869 48.4246 88.3495C48.4246 89.5121 47.6697 90.5275 46.0569 90.5275" fill="black"/>
<path d="M65.4212 87.6505C65.0236 88.2428 64.6443 88.7505 64.6259 88.7505H64.6038C64.5817 88.7505 64.2061 88.2428 63.8084 87.6505L60.7927 83.3974H57.5229L63.1604 91.4141V98.2057H66.0509V91.4141L71.7104 83.3974H68.4222L65.4249 87.6505H65.4212Z" fill="black"/>
<path d="M90.5485 83.3974H87.6138V91.7306C87.6138 94.4788 86.4429 95.7518 84.2188 95.7518C81.9948 95.7518 80.8018 94.4825 80.8018 91.7306V83.3974H77.8892V91.7747C77.8892 96.1344 80.3415 98.5037 84.2188 98.5037C88.0962 98.5037 90.5448 96.1344 90.5448 91.7747V83.3974H90.5485Z" fill="black"/>
</svg>
